<svg width="400" height="300" viewBox="0 0 400 300" fill="none" xmlns="http://www.w3.org/2000/svg">
<path d="M200 150C200 130.117 183.883 114 164 114C144.117 114 128 130.117 128 150C128 169.883 144.117 186 164 186C183.883 186 200 169.883 200 150Z" fill="#E3F2FD"/>
<path d="M164 170C177.807 170 189 158.807 189 146C189 133.193 177.807 122 164 122C150.193 122 139 133.193 139 146C139 158.807 150.193 170 164 170Z" fill="#2196F3"/>
<path d="M164 158C170.627 158 176 152.627 176 146C176 139.373 170.627 134 164 134C157.373 134 152 139.373 152 146C152 152.627 157.373 158 164 158Z" fill="#FFFFFF"/>
<path d="M100 200H228V220H100V200Z" fill="#E3F2FD"/>
<path d="M120 210H140V215H120V210Z" fill="#2196F3"/>
<path d="M150 210H170V215H150V210Z" fill="#2196F3"/>
<path d="M180 210H200V215H180V210Z" fill="#2196F3"/>
<path d="M50 50H350V250H50V50Z" fill="#FFFFFF" stroke="#E0E0E0" stroke-width="2"/>
<path d="M70 70H330V230H70V70Z" fill="#F5F5F5"/>
<path d="M90 90H310V210H90V90Z" fill="#E3F2FD"/>
<path d="M110 110H290V190H110V110Z" fill="#2196F3"/>
<path d="M130 130H270V170H130V130Z" fill="#FFFFFF"/>
<text x="200" y="155" text-anchor="middle" fill="#2196F3" font-family="Arial" font-size="12">Bibliothèque</text>
</svg>